<?xml version="1.0" standalone="no"?>
<!DOCTYPE svg PUBLIC "-//W3C//DTD SVG 20010904//EN"
 "http://www.w3.org/TR/2001/REC-SVG-20010904/DTD/svg10.dtd">
<svg version="1.0" xmlns="http://www.w3.org/2000/svg"
 width="1059.000000pt" height="1059.000000pt" viewBox="0 0 1059.000000 1059.000000"
 preserveAspectRatio="xMidYMid meet">
<metadata>
Created by potrace 1.14, written by Peter Selinger 2001-2017
</metadata>
<g transform="translate(0.000000,1059.000000) scale(0.100000,-0.100000)"
fill="#000000" stroke="none">
<path d="M5009 10587 c-2 -3 -51 -7 -108 -11 -691 -45 -1459 -282 -2091 -646
-191 -110 -498 -317 -625 -421 -385 -317 -650 -587 -912 -929 -541 -707 -909
-1570 -1039 -2435 -8 -55 -16 -111 -19 -125 -2 -14 -7 -54 -10 -90 -4 -36 -9
-73 -11 -83 -19 -100 -26 -748 -10 -977 4 -69 9 -127 11 -130 2 -3 6 -37 10
-75 3 -39 13 -113 21 -165 8 -52 17 -111 20 -130 33 -217 119 -556 211 -830
230 -686 636 -1372 1116 -1889 143 -154 393 -394 483 -463 16 -12 34 -28 39
-34 21 -25 314 -240 442 -325 200 -133 337 -211 568 -323 280 -137 472 -213
765 -300 254 -77 618 -152 825 -172 39 -3 72 -8 75 -9 45 -26 937 -26 1040 0
8 2 42 6 75 10 429 44 939 182 1378 371 595 257 1128 622 1597 1094 132 133
174 178 262 282 24 27 53 62 66 77 50 57 254 333 333 451 185 278 371 634 507
970 123 305 265 806 296 1042 4 26 9 53 11 60 6 19 42 280 50 368 20 212 23
302 20 605 -2 182 -6 353 -9 380 -3 28 -11 97 -17 155 -108 1047 -548 2080
-1226 2882 -123 146 -141 165 -303 328 -397 400 -851 726 -1355 975 -526 259
-1071 420 -1640 484 -49 6 -110 13 -135 16 -53 7 -704 17 -711 12z"/>
</g>
</svg>
